<svg width="180" height="60" viewBox="0 0 180 60" fill="none" xmlns="http://www.w3.org/2000/svg">
<g clip-path="url(#clip0_16_939)">
<path d="M150 0H30C13.4315 0 0 13.4315 0 30C0 46.5685 13.4315 60 30 60H150C166.569 60 180 46.5685 180 30C180 13.4315 166.569 0 150 0Z" fill="white"/>
<path fill-rule="evenodd" clip-rule="evenodd" d="M150.311 51.7095C138.498 51.7095 128.888 42.0432 128.888 30.1592C128.888 18.2752 138.498 8.60883 150.311 8.60883C162.124 8.60883 171.734 18.2752 171.734 30.1592C171.734 42.0432 162.124 51.7095 150.311 51.7095Z" fill="#7C47E1"/>
<path fill-rule="evenodd" clip-rule="evenodd" d="M150.311 44.8585C142.24 44.8585 135.7 38.2764 135.7 30.1592C135.7 22.042 142.244 15.4598 150.311 15.4598C158.379 15.4598 164.922 22.042 164.922 30.1592C164.922 38.2764 158.379 44.8585 150.311 44.8585Z" fill="#44CB86"/>
<path fill-rule="evenodd" clip-rule="evenodd" d="M30.3289 44.7736C22.3178 44.7736 15.8029 38.2162 15.8029 30.1592C15.8029 22.1021 22.3178 15.5447 30.3289 15.5447C38.34 15.5447 44.855 22.1021 44.855 30.1592C44.855 38.2162 38.3365 44.7736 30.3289 44.7736ZM51.7307 30.1592C51.7307 18.2858 42.1315 8.63004 30.3289 8.63004C18.5263 8.63004 8.92712 18.2893 8.92712 30.1592C8.92712 42.029 18.5263 51.6883 30.3289 51.6883C35.9314 51.6883 41.0386 49.5096 44.855 45.9514V48.2292C44.855 50.1391 46.3935 51.6847 48.2928 51.6847C50.1921 51.6847 51.7307 50.1356 51.7307 48.2292V30.8489C51.7307 30.7817 51.7307 30.7145 51.7236 30.6543C51.7236 30.4881 51.7307 30.3219 51.7307 30.1592Z" fill="#7C47E1"/>
<path fill-rule="evenodd" clip-rule="evenodd" d="M77.7658 51.8404C65.8818 51.8404 56.2155 42.1139 56.2155 30.1591C56.2155 18.2044 65.8853 8.47794 77.7658 8.47794C83.0959 8.47794 88.2103 10.4515 92.1716 14.0309C93.5899 15.3148 93.7066 17.5147 92.4333 18.9436C91.1565 20.3725 88.9707 20.4893 87.5489 19.2054C84.8608 16.7755 81.384 15.435 77.7658 15.435C69.6946 15.435 63.1301 22.0384 63.1301 30.1591C63.1301 38.2799 69.6946 44.8833 77.7658 44.8833C81.3876 44.8833 84.8644 43.5428 87.5524 41.1094C88.9707 39.8255 91.1565 39.9387 92.4369 41.3676C93.7137 42.7965 93.6005 44.9929 92.1822 46.2803C88.2209 49.8668 83.103 51.8404 77.7693 51.8404H77.7658Z" fill="#7C47E1"/>
<path fill-rule="evenodd" clip-rule="evenodd" d="M129.182 45.4916L110.634 29.8373L129.182 14.5084C130.643 13.2917 130.844 11.1094 129.634 9.64161C128.421 8.17026 126.257 7.96865 124.796 9.18888L104.703 25.9503V11.8486C104.703 9.93871 103.164 8.39308 101.265 8.39308C99.3657 8.39308 97.8271 9.94224 97.8271 11.8486V48.1514C97.8271 50.0613 99.3657 51.6105 101.265 51.6105C103.164 51.6105 104.703 50.0613 104.703 48.1514V34.0498L124.796 50.8111C125.44 51.3452 126.214 51.6069 126.989 51.6069C127.976 51.6069 128.955 51.1825 129.634 50.3549C130.848 48.8835 130.643 46.7048 129.182 45.4881V45.4916Z" fill="#7C47E1"/>
</g>
<defs>
<clipPath id="clip0_16_939">
<rect width="180" height="60" fill="white"/>
</clipPath>
</defs>
</svg>
